<svg width="200" height="200" xmlns="http://www.w3.org/2000/svg" xmlns:svg="http://www.w3.org/2000/svg" stroke-linejoin="round">
 <!-- Created with SVG-edit - https://github.com/SVG-Edit/svgedit-->
 <g class="layer">
  <title>Layer 1</title>
  <ellipse cx="94.5" cy="97.5" fill="#a05d23" id="svg_1" rx="76.5" ry="76" stroke="#000000"/>
  <ellipse cx="75" cy="78.5" fill="#000000" id="svg_3" rx="7" ry="8" stroke="#000000"/>
  <ellipse cx="111" cy="78" fill="#000000" id="svg_4" rx="7" ry="8" stroke="#000000"/>
  <ellipse cx="93" cy="132" fill="#cc6b10" id="svg_5" rx="42" ry="40.5" stroke="#723c0a"/>
  <path d="m63,26.5c-49,1 -49,2 -49,1.5c0,-0.5 21,53.5 21,53c0,-0.5 28,-54.5 28,-54.5z" fill="#a05d23" id="svg_7" stroke="#000000"/>
  <path d="m171.5,25.75c-49,1 -49,2 -49,1.5c0,-0.5 21,53.5 21,53c0,-0.5 28,-54.5 28,-54.5z" fill="#a05d23" id="svg_8" stroke="#000000" transform="rotate(2.24567 147 53.0017)"/>
  <ellipse cx="93.5" cy="102" fill="#000000" id="svg_9" rx="13.5" ry="8" stroke="#000000"/>
  <line fill="none" id="svg_11" stroke="#000000" stroke-width="4" x1="94" x2="94" y1="109.5" y2="131.5"/>
 </g>
</svg>